# MagicaVoxel @ Ephtracy

# group
o 

# material
mtllib kunai.mtl
usemtl palette

# normals
vn -1 0 0
vn 1 0 0
vn 0 0 1
vn 0 0 -1
vn 0 -1 0
vn 0 1 0

# texcoords
vt 0.841797 0.5
vt 0.962891 0.5
vt 0.970703 0.5
vt 0.982422 0.5

# verts
v -0.3 0 0.5
v -0.3 0 0
v -0.3 0 -0.3
v -0.3 0 -0.4
v -0.3 0 -0.5
v -0.3 0 -0.6
v -0.3 0.1 0.5
v -0.3 0.1 0
v -0.3 0.1 -0.3
v -0.3 0.1 -0.4
v -0.3 0.1 -0.5
v -0.3 0.1 -0.6
v -0.2 0 0.7
v -0.2 0 0.5
v -0.2 0 0
v -0.2 0 -0.1
v -0.2 0 -0.2
v -0.2 0 -0.3
v -0.2 0 -0.6
v -0.2 0 -0.7
v -0.2 0.1 0.7
v -0.2 0.1 0.5
v -0.2 0.1 0
v -0.2 0.1 -0.1
v -0.2 0.1 -0.2
v -0.2 0.1 -0.3
v -0.2 0.1 -0.6
v -0.2 0.1 -0.7
v -0.1 0 0.8
v -0.1 0 0.7
v -0.1 0 -0.1
v -0.1 0 -0.2
v -0.1 0.1 0.8
v -0.1 0.1 0.7
v -0.1 0.1 -0.1
v -0.1 0.1 -0.2
v 0.1 0 -0.3
v 0.1 0 -0.4
v 0.1 0 -0.5
v 0.1 0 -0.6
v 0.1 0.1 -0.3
v 0.1 0.1 -0.4
v 0.1 0.1 -0.5
v 0.1 0.1 -0.6
v -0.2 0 -0.3
v -0.2 0 -0.4
v -0.2 0 -0.5
v -0.2 0 -0.6
v -0.2 0.1 -0.3
v -0.2 0.1 -0.4
v -0.2 0.1 -0.5
v -0.2 0.1 -0.6
v 0 0 0.8
v 0 0 0.7
v 0 0 -0.1
v 0 0 -0.2
v 0 0.1 0.8
v 0 0.1 0.7
v 0 0.1 -0.1
v 0 0.1 -0.2
v 0.1 0 0.7
v 0.1 0 0.5
v 0.1 0 0
v 0.1 0 -0.1
v 0.1 0 -0.2
v 0.1 0 -0.3
v 0.1 0 -0.6
v 0.1 0 -0.7
v 0.1 0.1 0.7
v 0.1 0.1 0.5
v 0.1 0.1 0
v 0.1 0.1 -0.1
v 0.1 0.1 -0.2
v 0.1 0.1 -0.3
v 0.1 0.1 -0.6
v 0.1 0.1 -0.7
v 0.2 0 0.5
v 0.2 0 0.3
v 0.2 0 0
v 0.2 0 -0.3
v 0.2 0 -0.4
v 0.2 0 -0.5
v 0.2 0 -0.6
v 0.2 0.1 0.5
v 0.2 0.1 0.3
v 0.2 0.1 0
v 0.2 0.1 -0.3
v 0.2 0.1 -0.4
v 0.2 0.1 -0.5
v 0.2 0.1 -0.6
v -0.1 0 0.8
v -0.1 0.1 0.8
v 0 0 0.8
v 0 0.1 0.8
v -0.2 0 0.7
v -0.2 0.1 0.7
v -0.1 0 0.7
v -0.1 0.1 0.7
v 0 0 0.7
v 0 0.1 0.7
v 0.1 0 0.7
v 0.1 0.1 0.7
v -0.3 0 0.5
v -0.3 0.1 0.5
v -0.2 0 0.5
v -0.2 0.1 0.5
v 0.1 0 0.5
v 0.1 0.1 0.5
v 0.2 0 0.5
v 0.2 0.1 0.5
v -0.2 0 -0.2
v -0.2 0.1 -0.2
v -0.1 0 -0.2
v -0.1 0.1 -0.2
v 0 0 -0.2
v 0 0.1 -0.2
v 0.1 0 -0.2
v 0.1 0.1 -0.2
v -0.3 0 -0.3
v -0.3 0.1 -0.3
v -0.2 0 -0.3
v -0.2 0.1 -0.3
v 0.1 0 -0.3
v 0.1 0.1 -0.3
v 0.2 0 -0.3
v 0.2 0.1 -0.3
v -0.2 0 -0.6
v -0.2 0.1 -0.6
v 0.1 0 -0.6
v 0.1 0.1 -0.6
v -0.3 0 0
v -0.3 0.1 0
v -0.2 0 0
v -0.2 0.1 0
v 0.1 0 0
v 0.1 0.1 0
v 0.2 0 0
v 0.2 0.1 0
v -0.2 0 -0.1
v -0.2 0.1 -0.1
v -0.1 0 -0.1
v -0.1 0.1 -0.1
v 0 0 -0.1
v 0 0.1 -0.1
v 0.1 0 -0.1
v 0.1 0.1 -0.1
v -0.2 0 -0.3
v -0.2 0.1 -0.3
v 0.1 0 -0.3
v 0.1 0.1 -0.3
v -0.3 0 -0.6
v -0.3 0.1 -0.6
v -0.2 0 -0.6
v -0.2 0.1 -0.6
v 0.1 0 -0.6
v 0.1 0.1 -0.6
v 0.2 0 -0.6
v 0.2 0.1 -0.6
v -0.2 0 -0.7
v -0.2 0.1 -0.7
v 0.1 0 -0.7
v 0.1 0.1 -0.7
v -0.1 0 0.8
v 0 0 0.8
v -0.2 0 0.7
v -0.1 0 0.7
v 0 0 0.7
v 0.1 0 0.7
v -0.1 0 0.6
v 0 0 0.6
v -0.3 0 0.5
v -0.2 0 0.5
v 0 0 0.5
v 0.1 0 0.5
v 0.2 0 0.5
v 0 0 0.3
v 0.1 0 0.3
v 0.2 0 0.3
v -0.3 0 0
v -0.2 0 0
v 0.1 0 0
v 0.2 0 0
v -0.2 0 -0.1
v -0.1 0 -0.1
v 0 0 -0.1
v 0.1 0 -0.1
v -0.2 0 -0.2
v -0.1 0 -0.2
v 0 0 -0.2
v 0.1 0 -0.2
v -0.3 0 -0.3
v -0.2 0 -0.3
v 0.1 0 -0.3
v 0.2 0 -0.3
v -0.3 0 -0.4
v -0.2 0 -0.4
v 0.1 0 -0.4
v 0.2 0 -0.4
v -0.3 0 -0.5
v -0.2 0 -0.5
v 0.1 0 -0.5
v 0.2 0 -0.5
v -0.3 0 -0.6
v -0.2 0 -0.6
v 0.1 0 -0.6
v 0.2 0 -0.6
v -0.2 0 -0.7
v 0.1 0 -0.7
v -0.1 0.1 0.8
v 0 0.1 0.8
v -0.2 0.1 0.7
v -0.1 0.1 0.7
v 0 0.1 0.7
v 0.1 0.1 0.7
v -0.1 0.1 0.6
v 0 0.1 0.6
v -0.3 0.1 0.5
v -0.2 0.1 0.5
v 0 0.1 0.5
v 0.1 0.1 0.5
v 0.2 0.1 0.5
v 0 0.1 0.3
v 0.1 0.1 0.3
v 0.2 0.1 0.3
v -0.3 0.1 0
v -0.2 0.1 0
v 0.1 0.1 0
v 0.2 0.1 0
v -0.2 0.1 -0.1
v -0.1 0.1 -0.1
v 0 0.1 -0.1
v 0.1 0.1 -0.1
v -0.2 0.1 -0.2
v -0.1 0.1 -0.2
v 0 0.1 -0.2
v 0.1 0.1 -0.2
v -0.3 0.1 -0.3
v -0.2 0.1 -0.3
v 0.1 0.1 -0.3
v 0.2 0.1 -0.3
v -0.3 0.1 -0.4
v -0.2 0.1 -0.4
v 0.1 0.1 -0.4
v 0.2 0.1 -0.4
v -0.3 0.1 -0.5
v -0.2 0.1 -0.5
v 0.1 0.1 -0.5
v 0.2 0.1 -0.5
v -0.3 0.1 -0.6
v -0.2 0.1 -0.6
v 0.1 0.1 -0.6
v 0.2 0.1 -0.6
v -0.2 0.1 -0.7
v 0.1 0.1 -0.7

# faces
f 7/4/1 2/4/1 1/4/1
f 8/4/1 2/4/1 7/4/1
f 9/1/1 4/1/1 3/1/1
f 10/4/1 5/4/1 4/4/1
f 10/1/1 4/1/1 9/1/1
f 11/1/1 6/1/1 5/1/1
f 11/4/1 5/4/1 10/4/1
f 12/1/1 6/1/1 11/1/1
f 21/4/1 14/4/1 13/4/1
f 22/4/1 14/4/1 21/4/1
f 23/4/1 16/4/1 15/4/1
f 24/4/1 16/4/1 23/4/1
f 25/4/1 18/4/1 17/4/1
f 26/4/1 18/4/1 25/4/1
f 27/4/1 20/4/1 19/4/1
f 28/4/1 20/4/1 27/4/1
f 33/3/1 30/3/1 29/3/1
f 34/3/1 30/3/1 33/3/1
f 35/1/1 32/1/1 31/1/1
f 36/1/1 32/1/1 35/1/1
f 41/1/1 38/1/1 37/1/1
f 42/4/1 39/4/1 38/4/1
f 42/1/1 38/1/1 41/1/1
f 43/1/1 40/1/1 39/1/1
f 43/4/1 39/4/1 42/4/1
f 44/1/1 40/1/1 43/1/1
f 45/1/2 46/1/2 49/1/2
f 46/4/2 47/4/2 50/4/2
f 49/1/2 46/1/2 50/1/2
f 47/1/2 48/1/2 51/1/2
f 50/4/2 47/4/2 51/4/2
f 51/1/2 48/1/2 52/1/2
f 53/3/2 54/3/2 57/3/2
f 57/3/2 54/3/2 58/3/2
f 55/1/2 56/1/2 59/1/2
f 59/1/2 56/1/2 60/1/2
f 61/2/2 62/2/2 69/2/2
f 69/2/2 62/2/2 70/2/2
f 63/4/2 64/4/2 71/4/2
f 71/4/2 64/4/2 72/4/2
f 65/4/2 66/4/2 73/4/2
f 73/4/2 66/4/2 74/4/2
f 67/4/2 68/4/2 75/4/2
f 75/4/2 68/4/2 76/4/2
f 77/2/2 78/2/2 84/2/2
f 78/3/2 79/3/2 85/3/2
f 84/2/2 78/2/2 85/2/2
f 85/3/2 79/3/2 86/3/2
f 80/1/2 81/1/2 87/1/2
f 81/4/2 82/4/2 88/4/2
f 87/1/2 81/1/2 88/1/2
f 82/1/2 83/1/2 89/1/2
f 88/4/2 82/4/2 89/4/2
f 89/1/2 83/1/2 90/1/2
f 93/3/3 92/3/3 91/3/3
f 94/3/3 92/3/3 93/3/3
f 97/4/3 96/4/3 95/4/3
f 98/4/3 96/4/3 97/4/3
f 101/2/3 100/2/3 99/2/3
f 102/2/3 100/2/3 101/2/3
f 105/4/3 104/4/3 103/4/3
f 106/4/3 104/4/3 105/4/3
f 109/2/3 108/2/3 107/2/3
f 110/2/3 108/2/3 109/2/3
f 113/4/3 112/4/3 111/4/3
f 114/4/3 112/4/3 113/4/3
f 117/4/3 116/4/3 115/4/3
f 118/4/3 116/4/3 117/4/3
f 121/1/3 120/1/3 119/1/3
f 122/1/3 120/1/3 121/1/3
f 125/1/3 124/1/3 123/1/3
f 126/1/3 124/1/3 125/1/3
f 129/4/3 128/4/3 127/4/3
f 130/4/3 128/4/3 129/4/3
f 131/4/4 132/4/4 133/4/4
f 133/4/4 132/4/4 134/4/4
f 135/3/4 136/3/4 137/3/4
f 137/3/4 136/3/4 138/3/4
f 139/4/4 140/4/4 141/4/4
f 141/4/4 140/4/4 142/4/4
f 143/4/4 144/4/4 145/4/4
f 145/4/4 144/4/4 146/4/4
f 147/4/4 148/4/4 149/4/4
f 149/4/4 148/4/4 150/4/4
f 151/1/4 152/1/4 153/1/4
f 153/1/4 152/1/4 154/1/4
f 155/1/4 156/1/4 157/1/4
f 157/1/4 156/1/4 158/1/4
f 159/4/4 160/4/4 161/4/4
f 161/4/4 160/4/4 162/4/4
f 166/3/5 164/3/5 163/3/5
f 167/3/5 164/3/5 166/3/5
f 169/4/5 166/4/5 165/4/5
f 169/3/5 167/3/5 166/3/5
f 170/2/5 168/2/5 167/2/5
f 170/3/5 167/3/5 169/3/5
f 172/4/5 169/4/5 165/4/5
f 172/4/5 170/4/5 169/4/5
f 173/2/5 168/2/5 170/2/5
f 173/4/5 170/4/5 172/4/5
f 174/2/5 168/2/5 173/2/5
f 176/4/5 172/4/5 171/4/5
f 176/4/5 173/4/5 172/4/5
f 176/3/5 174/3/5 173/3/5
f 177/2/5 175/2/5 174/2/5
f 177/3/5 174/3/5 176/3/5
f 178/2/5 175/2/5 177/2/5
f 179/4/5 176/4/5 171/4/5
f 179/4/5 177/4/5 176/4/5
f 180/4/5 177/4/5 179/4/5
f 181/3/5 178/3/5 177/3/5
f 181/4/5 177/4/5 180/4/5
f 182/3/5 178/3/5 181/3/5
f 183/4/5 181/4/5 180/4/5
f 184/4/5 181/4/5 183/4/5
f 185/4/5 181/4/5 184/4/5
f 186/4/5 181/4/5 185/4/5
f 188/1/5 185/1/5 184/1/5
f 189/1/5 185/1/5 188/1/5
f 192/4/5 188/4/5 187/4/5
f 192/4/5 190/4/5 189/4/5
f 192/4/5 189/4/5 188/4/5
f 193/4/5 190/4/5 192/4/5
f 195/1/5 192/1/5 191/1/5
f 196/1/5 192/1/5 195/1/5
f 197/1/5 194/1/5 193/1/5
f 198/1/5 194/1/5 197/1/5
f 199/4/5 196/4/5 195/4/5
f 200/4/5 196/4/5 199/4/5
f 201/4/5 198/4/5 197/4/5
f 202/4/5 198/4/5 201/4/5
f 203/1/5 200/1/5 199/1/5
f 204/1/5 200/1/5 203/1/5
f 205/1/5 202/1/5 201/1/5
f 206/1/5 202/1/5 205/1/5
f 207/4/5 205/4/5 204/4/5
f 208/4/5 205/4/5 207/4/5
f 209/3/6 210/3/6 212/3/6
f 212/3/6 210/3/6 213/3/6
f 211/4/6 212/4/6 215/4/6
f 212/3/6 213/3/6 215/3/6
f 213/2/6 214/2/6 216/2/6
f 215/3/6 213/3/6 216/3/6
f 211/4/6 215/4/6 218/4/6
f 215/4/6 216/4/6 218/4/6
f 216/2/6 214/2/6 219/2/6
f 218/4/6 216/4/6 219/4/6
f 219/2/6 214/2/6 220/2/6
f 217/4/6 218/4/6 222/4/6
f 218/4/6 219/4/6 222/4/6
f 219/3/6 220/3/6 222/3/6
f 220/2/6 221/2/6 223/2/6
f 222/3/6 220/3/6 223/3/6
f 223/2/6 221/2/6 224/2/6
f 217/4/6 222/4/6 225/4/6
f 222/4/6 223/4/6 225/4/6
f 225/4/6 223/4/6 226/4/6
f 223/3/6 224/3/6 227/3/6
f 226/4/6 223/4/6 227/4/6
f 227/3/6 224/3/6 228/3/6
f 226/4/6 227/4/6 229/4/6
f 229/4/6 227/4/6 230/4/6
f 230/4/6 227/4/6 231/4/6
f 231/4/6 227/4/6 232/4/6
f 230/1/6 231/1/6 234/1/6
f 234/1/6 231/1/6 235/1/6
f 233/4/6 234/4/6 238/4/6
f 235/4/6 236/4/6 238/4/6
f 234/4/6 235/4/6 238/4/6
f 238/4/6 236/4/6 239/4/6
f 237/1/6 238/1/6 241/1/6
f 241/1/6 238/1/6 242/1/6
f 239/1/6 240/1/6 243/1/6
f 243/1/6 240/1/6 244/1/6
f 241/4/6 242/4/6 245/4/6
f 245/4/6 242/4/6 246/4/6
f 243/4/6 244/4/6 247/4/6
f 247/4/6 244/4/6 248/4/6
f 245/1/6 246/1/6 249/1/6
f 249/1/6 246/1/6 250/1/6
f 247/1/6 248/1/6 251/1/6
f 251/1/6 248/1/6 252/1/6
f 250/4/6 251/4/6 253/4/6
f 253/4/6 251/4/6 254/4/6
