# MagicaVoxel @ Ephtracy

# group
o 

# material
mtllib katana.mtl
usemtl palette

# normals
vn -1 0 0
vn 1 0 0
vn 0 0 1
vn 0 0 -1
vn 0 -1 0
vn 0 1 0

# texcoords
vt 0.369141 0.5
vt 0.841797 0.5
vt 0.962891 0.5
vt 0.970703 0.5
vt 0.978516 0.5
vt 0.982422 0.5

# verts
v -0.3 2.1 0.1
v -0.3 2.1 -0.1
v -0.3 2.6 0.1
v -0.3 2.6 -0.1
v -0.2 1.7 0.1
v -0.2 1.7 -0.1
v -0.2 2 0.1
v -0.2 2 -0.1
v -0.2 2.1 0.1
v -0.2 2.1 -0.1
v -0.2 2.6 0.1
v -0.2 2.6 -0.1
v -0.2 2.7 0.1
v -0.2 2.7 -0.1
v -0.2 2.8 0.1
v -0.2 2.8 -0.1
v -0.1 0 0.1
v -0.1 0 -0.1
v -0.1 0.1 0.1
v -0.1 0.1 -0.1
v -0.1 0.2 0.1
v -0.1 0.2 -0.1
v -0.1 0.3 0.1
v -0.1 0.3 -0.1
v -0.1 0.4 0.1
v -0.1 0.4 -0.1
v -0.1 0.5 0.1
v -0.1 0.5 -0.1
v -0.1 1.7 0.1
v -0.1 1.7 -0.1
v -0.1 2.8 0.1
v -0.1 2.8 -0.1
v -0.1 2.9 0.1
v -0.1 2.9 -0.1
v 2.98023e-08 2.9 0.1
v 2.98023e-08 2.9 -0.1
v 2.98023e-08 3 0.1
v 2.98023e-08 3 -0.1
v 0.1 0 0.1
v 0.1 0 -0.1
v 0.1 0.1 0.1
v 0.1 0.1 -0.1
v 0.1 0.2 0.1
v 0.1 0.2 -0.1
v 0.1 0.3 0.1
v 0.1 0.3 -0.1
v 0.1 0.4 0.1
v 0.1 0.4 -0.1
v 0.1 0.5 0.1
v 0.1 0.5 -0.1
v 0.1 3 0.1
v 0.1 3 -0.1
v -0.3 2.1 0.1
v -0.3 2.6 0.1
v -0.2 1.7 0.1
v -0.2 2 0.1
v -0.2 2.1 0.1
v -0.2 2.6 0.1
v -0.2 2.7 0.1
v -0.2 2.8 0.1
v -0.1 0 0.1
v -0.1 0.1 0.1
v -0.1 0.2 0.1
v -0.1 0.3 0.1
v -0.1 0.4 0.1
v -0.1 0.5 0.1
v -0.1 1.7 0.1
v -0.1 2 0.1
v -0.1 2.1 0.1
v -0.1 2.6 0.1
v -0.1 2.7 0.1
v -0.1 2.8 0.1
v -0.1 2.9 0.1
v 2.98023e-08 0.5 0.1
v 2.98023e-08 2.1 0.1
v 2.98023e-08 2.6 0.1
v 2.98023e-08 2.8 0.1
v 2.98023e-08 2.9 0.1
v 2.98023e-08 3 0.1
v 0.1 0 0.1
v 0.1 0.1 0.1
v 0.1 0.2 0.1
v 0.1 0.3 0.1
v 0.1 0.4 0.1
v 0.1 0.5 0.1
v 0.1 3 0.1
v -0.3 2.1 -0.1
v -0.3 2.6 -0.1
v -0.2 1.7 -0.1
v -0.2 2 -0.1
v -0.2 2.1 -0.1
v -0.2 2.6 -0.1
v -0.2 2.7 -0.1
v -0.2 2.8 -0.1
v -0.1 0 -0.1
v -0.1 0.1 -0.1
v -0.1 0.2 -0.1
v -0.1 0.3 -0.1
v -0.1 0.4 -0.1
v -0.1 0.5 -0.1
v -0.1 1.7 -0.1
v -0.1 2 -0.1
v -0.1 2.1 -0.1
v -0.1 2.6 -0.1
v -0.1 2.7 -0.1
v -0.1 2.8 -0.1
v -0.1 2.9 -0.1
v 2.98023e-08 0.5 -0.1
v 2.98023e-08 2.1 -0.1
v 2.98023e-08 2.8 -0.1
v 2.98023e-08 2.9 -0.1
v 2.98023e-08 3 -0.1
v 0.1 0 -0.1
v 0.1 0.1 -0.1
v 0.1 0.2 -0.1
v 0.1 0.3 -0.1
v 0.1 0.4 -0.1
v 0.1 0.5 -0.1
v 0.1 3 -0.1
v -0.1 0 0.1
v 0.1 0 0.1
v -0.1 0 -0.1
v 0.1 0 -0.1
v -0.2 1.7 0.1
v -0.1 1.7 0.1
v -0.2 1.7 -0.1
v -0.1 1.7 -0.1
v -0.3 2.1 0.1
v -0.2 2.1 0.1
v -0.3 2.1 -0.1
v -0.2 2.1 -0.1
v -0.3 2.6 0.1
v -0.2 2.6 0.1
v -0.3 2.6 -0.1
v -0.2 2.6 -0.1
v -0.2 2.8 0.1
v -0.1 2.8 0.1
v -0.2 2.8 -0.1
v -0.1 2.8 -0.1
v -0.1 2.9 0.1
v 2.98023e-08 2.9 0.1
v -0.1 2.9 -0.1
v 2.98023e-08 2.9 -0.1
v 2.98023e-08 3 0.1
v 0.1 3 0.1
v 2.98023e-08 3 -0.1
v 0.1 3 -0.1

# faces
f 3/3/1 2/3/1 1/3/1
f 4/3/1 2/3/1 3/3/1
f 7/4/1 6/4/1 5/4/1
f 8/4/1 6/4/1 7/4/1
f 9/3/1 8/3/1 7/3/1
f 10/3/1 8/3/1 9/3/1
f 13/3/1 12/3/1 11/3/1
f 14/3/1 12/3/1 13/3/1
f 15/4/1 14/4/1 13/4/1
f 16/4/1 14/4/1 15/4/1
f 19/1/1 18/1/1 17/1/1
f 20/1/1 18/1/1 19/1/1
f 21/2/1 20/2/1 19/2/1
f 22/2/1 20/2/1 21/2/1
f 23/1/1 22/1/1 21/1/1
f 24/1/1 22/1/1 23/1/1
f 25/2/1 24/2/1 23/2/1
f 26/2/1 24/2/1 25/2/1
f 27/1/1 26/1/1 25/1/1
f 28/1/1 26/1/1 27/1/1
f 29/5/1 28/5/1 27/5/1
f 30/5/1 28/5/1 29/5/1
f 33/4/1 32/4/1 31/4/1
f 34/4/1 32/4/1 33/4/1
f 37/6/1 36/6/1 35/6/1
f 38/6/1 36/6/1 37/6/1
f 39/1/2 40/1/2 41/1/2
f 41/1/2 40/1/2 42/1/2
f 41/2/2 42/2/2 43/2/2
f 43/2/2 42/2/2 44/2/2
f 43/1/2 44/1/2 45/1/2
f 45/1/2 44/1/2 46/1/2
f 45/2/2 46/2/2 47/2/2
f 47/2/2 46/2/2 48/2/2
f 47/1/2 48/1/2 49/1/2
f 49/1/2 48/1/2 50/1/2
f 49/6/2 50/6/2 51/6/2
f 51/6/2 50/6/2 52/6/2
f 57/3/3 54/3/3 53/3/3
f 58/3/3 54/3/3 57/3/3
f 67/4/3 56/4/3 55/4/3
f 68/3/3 57/3/3 56/3/3
f 68/4/3 56/4/3 67/4/3
f 69/5/3 58/5/3 57/5/3
f 69/3/3 57/3/3 68/3/3
f 70/3/3 59/3/3 58/3/3
f 70/5/3 58/5/3 69/5/3
f 71/4/3 60/4/3 59/4/3
f 71/3/3 59/3/3 70/3/3
f 72/4/3 60/4/3 71/4/3
f 74/1/3 66/1/3 65/1/3
f 74/5/3 67/5/3 66/5/3
f 74/5/3 68/5/3 67/5/3
f 74/5/3 69/5/3 68/5/3
f 75/6/3 70/6/3 69/6/3
f 75/5/3 69/5/3 74/5/3
f 76/5/3 72/5/3 71/5/3
f 76/6/3 70/6/3 75/6/3
f 76/5/3 71/5/3 70/5/3
f 77/4/3 73/4/3 72/4/3
f 77/5/3 72/5/3 76/5/3
f 78/4/3 73/4/3 77/4/3
f 80/1/3 62/1/3 61/1/3
f 81/2/3 63/2/3 62/2/3
f 81/1/3 62/1/3 80/1/3
f 82/1/3 64/1/3 63/1/3
f 82/2/3 63/2/3 81/2/3
f 83/2/3 65/2/3 64/2/3
f 83/1/3 64/1/3 82/1/3
f 84/1/3 74/1/3 65/1/3
f 84/2/3 65/2/3 83/2/3
f 85/6/3 76/6/3 75/6/3
f 85/1/3 74/1/3 84/1/3
f 85/6/3 75/6/3 74/6/3
f 85/6/3 78/6/3 77/6/3
f 85/6/3 77/6/3 76/6/3
f 85/6/3 79/6/3 78/6/3
f 86/6/3 79/6/3 85/6/3
f 87/3/4 88/3/4 91/3/4
f 91/3/4 88/3/4 92/3/4
f 89/4/4 90/4/4 101/4/4
f 90/3/4 91/3/4 102/3/4
f 101/4/4 90/4/4 102/4/4
f 91/5/4 92/5/4 103/5/4
f 102/3/4 91/3/4 103/3/4
f 92/3/4 93/3/4 104/3/4
f 103/5/4 92/5/4 104/5/4
f 93/4/4 94/4/4 105/4/4
f 104/3/4 93/3/4 105/3/4
f 105/4/4 94/4/4 106/4/4
f 99/1/4 100/1/4 108/1/4
f 100/5/4 101/5/4 108/5/4
f 101/5/4 102/5/4 108/5/4
f 102/5/4 103/5/4 108/5/4
f 105/6/4 106/6/4 109/6/4
f 108/5/4 103/5/4 109/5/4
f 104/6/4 105/6/4 109/6/4
f 103/6/4 104/6/4 109/6/4
f 106/4/4 107/4/4 110/4/4
f 109/6/4 106/6/4 110/6/4
f 110/4/4 107/4/4 111/4/4
f 95/1/4 96/1/4 113/1/4
f 96/2/4 97/2/4 114/2/4
f 113/1/4 96/1/4 114/1/4
f 97/1/4 98/1/4 115/1/4
f 114/2/4 97/2/4 115/2/4
f 98/2/4 99/2/4 116/2/4
f 115/1/4 98/1/4 116/1/4
f 99/1/4 108/1/4 117/1/4
f 116/2/4 99/2/4 117/2/4
f 108/6/4 109/6/4 118/6/4
f 117/1/4 108/1/4 118/1/4
f 111/6/4 112/6/4 118/6/4
f 110/6/4 111/6/4 118/6/4
f 109/6/4 110/6/4 118/6/4
f 118/6/4 112/6/4 119/6/4
f 122/1/5 121/1/5 120/1/5
f 123/1/5 121/1/5 122/1/5
f 126/4/5 125/4/5 124/4/5
f 127/4/5 125/4/5 126/4/5
f 130/3/5 129/3/5 128/3/5
f 131/3/5 129/3/5 130/3/5
f 132/3/6 133/3/6 134/3/6
f 134/3/6 133/3/6 135/3/6
f 136/4/6 137/4/6 138/4/6
f 138/4/6 137/4/6 139/4/6
f 140/4/6 141/4/6 142/4/6
f 142/4/6 141/4/6 143/4/6
f 144/6/6 145/6/6 146/6/6
f 146/6/6 145/6/6 147/6/6
